<mxfile host="65bd71144e">
    <diagram id="8Wz3FwkcaFIM8SSFOOUf" name="Page-1">
        <mxGraphModel dx="1852" dy="571" grid="1" gridSize="10" guides="1" tooltips="1" connect="1" arrows="1" fold="1" page="1" pageScale="1" pageWidth="850" pageHeight="1100" math="0" shadow="0">
            <root>
                <mxCell id="0"/>
                <mxCell id="1" parent="0"/>
                <mxCell id="10" value="ASD Vacancies" style="swimlane;childLayout=stackLayout;resizeParent=1;resizeParentMax=0;startSize=20;html=1;" parent="1" vertex="1">
                    <mxGeometry x="20" y="40" width="1110" height="1290" as="geometry"/>
                </mxCell>
                <mxCell id="11" value="Controller" style="swimlane;startSize=20;html=1;" parent="10" vertex="1">
                    <mxGeometry y="20" width="290" height="1270" as="geometry"/>
                </mxCell>
                <mxCell id="43" value="&amp;nbsp; fetch vacancies" style="rounded=0;whiteSpace=wrap;html=1;fillColor=none;align=center;" parent="11" vertex="1">
                    <mxGeometry x="60" y="490" width="120" height="60" as="geometry"/>
                </mxCell>
                <mxCell id="12" value="Service" style="swimlane;startSize=20;html=1;" parent="10" vertex="1">
                    <mxGeometry x="290" y="20" width="300" height="1270" as="geometry"/>
                </mxCell>
                <mxCell id="38" value="" style="endArrow=none;html=1;" parent="12" edge="1">
                    <mxGeometry width="50" height="50" relative="1" as="geometry">
                        <mxPoint x="-290" y="420" as="sourcePoint"/>
                        <mxPoint x="820" y="420" as="targetPoint"/>
                        <Array as="points"/>
                    </mxGeometry>
                </mxCell>
                <mxCell id="56" style="edgeStyle=none;html=1;exitX=0.5;exitY=0;exitDx=0;exitDy=0;entryX=0;entryY=0.5;entryDx=0;entryDy=0;" parent="12" source="47" target="54" edge="1">
                    <mxGeometry relative="1" as="geometry">
                        <Array as="points">
                            <mxPoint x="90" y="460"/>
                        </Array>
                    </mxGeometry>
                </mxCell>
                <mxCell id="47" value="fetch vacancies" style="rounded=0;whiteSpace=wrap;html=1;fillColor=none;align=center;" parent="12" vertex="1">
                    <mxGeometry x="30" y="490" width="120" height="60" as="geometry"/>
                </mxCell>
                <mxCell id="37" value="" style="endArrow=none;html=1;" parent="12" edge="1">
                    <mxGeometry width="50" height="50" relative="1" as="geometry">
                        <mxPoint x="-290" y="190" as="sourcePoint"/>
                        <mxPoint x="820" y="190" as="targetPoint"/>
                        <Array as="points"/>
                    </mxGeometry>
                </mxCell>
                <mxCell id="54" value="fetch company" style="rounded=0;whiteSpace=wrap;html=1;fillColor=none;align=center;" parent="12" vertex="1">
                    <mxGeometry x="160" y="430" width="120" height="60" as="geometry"/>
                </mxCell>
                <mxCell id="13" value="Repository" style="swimlane;startSize=20;html=1;" parent="10" vertex="1">
                    <mxGeometry x="590" y="20" width="290" height="1270" as="geometry"/>
                </mxCell>
                <mxCell id="40" value="" style="endArrow=none;html=1;" parent="13" edge="1">
                    <mxGeometry width="50" height="50" relative="1" as="geometry">
                        <mxPoint x="-590" y="990" as="sourcePoint"/>
                        <mxPoint x="520" y="990" as="targetPoint"/>
                        <Array as="points"/>
                    </mxGeometry>
                </mxCell>
                <mxCell id="39" value="" style="endArrow=none;html=1;" parent="13" edge="1">
                    <mxGeometry width="50" height="50" relative="1" as="geometry">
                        <mxPoint x="-590" y="700" as="sourcePoint"/>
                        <mxPoint x="520" y="700" as="targetPoint"/>
                        <Array as="points"/>
                    </mxGeometry>
                </mxCell>
                <mxCell id="51" value="fetch vacancies" style="rounded=0;whiteSpace=wrap;html=1;fillColor=none;align=center;" parent="13" vertex="1">
                    <mxGeometry x="85" y="490" width="120" height="60" as="geometry"/>
                </mxCell>
                <mxCell id="57" value="fetch company" style="rounded=0;whiteSpace=wrap;html=1;fillColor=none;align=center;" parent="13" vertex="1">
                    <mxGeometry x="85" y="70" width="120" height="60" as="geometry"/>
                </mxCell>
                <mxCell id="14" value="Entity" style="swimlane;startSize=20;html=1;" parent="10" vertex="1">
                    <mxGeometry x="880" y="20" width="230" height="1270" as="geometry"/>
                </mxCell>
                <mxCell id="24" value="Company" style="swimlane;startSize=23;" parent="14" vertex="1">
                    <mxGeometry x="42.5" y="50" width="145" height="100" as="geometry"/>
                </mxCell>
                <mxCell id="29" value="Activities" style="swimlane;" parent="14" vertex="1">
                    <mxGeometry x="42.5" y="230" width="145" height="100" as="geometry"/>
                </mxCell>
                <mxCell id="30" value="Vacancies" style="swimlane;startSize=23;" parent="14" vertex="1">
                    <mxGeometry x="42.5" y="500" width="145" height="100" as="geometry"/>
                </mxCell>
                <mxCell id="22" value="Users" style="swimlane;" parent="14" vertex="1">
                    <mxGeometry x="42.5" y="790" width="145" height="100" as="geometry"/>
                </mxCell>
                <mxCell id="23" value="Profile" style="swimlane;" parent="14" vertex="1">
                    <mxGeometry x="30" y="1080" width="145" height="100" as="geometry"/>
                </mxCell>
                <mxCell id="50" style="edgeStyle=none;html=1;" parent="10" source="43" target="47" edge="1">
                    <mxGeometry relative="1" as="geometry"/>
                </mxCell>
                <mxCell id="52" style="edgeStyle=none;html=1;entryX=0;entryY=0.5;entryDx=0;entryDy=0;" parent="10" source="47" target="51" edge="1">
                    <mxGeometry relative="1" as="geometry"/>
                </mxCell>
                <mxCell id="58" style="edgeStyle=none;html=1;entryX=0;entryY=0.5;entryDx=0;entryDy=0;" parent="10" source="54" target="57" edge="1">
                    <mxGeometry relative="1" as="geometry">
                        <Array as="points">
                            <mxPoint x="510" y="120"/>
                        </Array>
                    </mxGeometry>
                </mxCell>
                <mxCell id="59" style="edgeStyle=none;html=1;entryX=1;entryY=0.5;entryDx=0;entryDy=0;" parent="10" source="24" target="57" edge="1">
                    <mxGeometry relative="1" as="geometry"/>
                </mxCell>
                <mxCell id="60" style="edgeStyle=none;html=1;exitX=0;exitY=0.5;exitDx=0;exitDy=0;entryX=1;entryY=0.5;entryDx=0;entryDy=0;" parent="10" source="30" target="51" edge="1">
                    <mxGeometry relative="1" as="geometry"/>
                </mxCell>
                <mxCell id="44" style="edgeStyle=none;html=1;entryX=0;entryY=0.5;entryDx=0;entryDy=0;" parent="1" source="33" target="43" edge="1">
                    <mxGeometry relative="1" as="geometry"/>
                </mxCell>
                <mxCell id="33" value="User" style="shape=umlActor;verticalLabelPosition=bottom;verticalAlign=top;html=1;outlineConnect=0;" parent="1" vertex="1">
                    <mxGeometry x="-110" y="550" width="30" height="60" as="geometry"/>
                </mxCell>
                <mxCell id="48" style="edgeStyle=none;html=1;entryX=0.5;entryY=1;entryDx=0;entryDy=0;" parent="1" source="45" target="43" edge="1">
                    <mxGeometry relative="1" as="geometry">
                        <Array as="points">
                            <mxPoint x="140" y="685"/>
                        </Array>
                    </mxGeometry>
                </mxCell>
                <mxCell id="45" value="HTML" style="shape=document;whiteSpace=wrap;html=1;boundedLbl=1;fillColor=none;" parent="1" vertex="1">
                    <mxGeometry x="-155" y="660" width="120" height="50" as="geometry"/>
                </mxCell>
            </root>
        </mxGraphModel>
    </diagram>
</mxfile>